<?xml version="1.0" standalone="no"?>
<svg xmlns="http://www.w3.org/2000/svg" xmlns:xlink="http://www.w3.org/1999/xlink" style="isolation:isolate" viewBox="550 -7 141.84 557" width="141.84" height="557">
    <defs>
        <clipPath id="_clipPath_WucifgoTusyleZjm5su5vKDKssByKK0E">
            <rect x="550" y="-7" width="141.84" height="557"/>
        </clipPath>
    </defs>
    <g clip-path="url(#_clipPath_WucifgoTusyleZjm5su5vKDKssByKK0E)"><g><g><g>
    <path d=" M 551.113 174.437 C 547.488 164.011 553.009 152.603 563.435 148.978 C 573.862 145.353 585.269 150.875 588.894 161.301 C 592.52 171.727 586.998 183.135 576.572 186.76 C 566.146 190.385 554.738 184.863 551.113 174.437 Z " 
        fill="rgb(200,148,116)"/>
    <rect 
        x="561.476" 
        y="155.798" 
        width="100" 
        height="80" 
        transform="matrix(0.945,-0.328,0.328,0.945,-30.387,211.678)" 
        fill="rgb(200,148,116)"/>
    <rect 
        x="572.711" y="133.9" 
        width="80" height="70" 
        transform="matrix(0.945,-0.328,0.328,0.945,-21.485,210.592)" 
        fill="rgb(200,148,116)"/>
    </g>
        <path d=" M 571.84 160 L 691.84 160 L 691.84 550 L 571.84 550 L 571.84 160 Z " fill="rgb(222,173,133)"/>
        <path d=" M 571.84 30 C 571.84 18.962 580.801 10 591.84 10 C 602.878 10 611.84 18.962 611.84 30 L 611.84 30 L 611.84 170 L 571.84 170 L 571.84 30 L 571.84 30 Z " 
            fill="rgb(222,173,133)"/>
        <path d=" M 601.84 110 C 601.84 98.962 610.801 90 621.84 90 C 632.878 90 641.84 98.962 641.84 110 L 641.84 110 L 641.84 250 L 601.84 250 L 601.84 110 L 601.84 110 Z " 
            fill="rgb(222,173,133)"/>
        <path d=" M 631.84 120 C 631.84 108.962 640.801 100 651.84 100 C 662.878 100 671.84 108.962 671.84 120 L 671.84 120 L 671.84 260 L 631.84 260 L 631.84 120 L 631.84 120 Z " 
            fill="rgb(222,173,133)"/>
        <path d=" M 651.84 130 C 651.84 118.962 660.801 110 671.84 110 C 682.878 110 691.84 118.962 691.84 130 L 691.84 130 L 691.84 270 L 651.84 270 L 651.84 130 L 651.84 130 Z " 
            fill="rgb(222,173,133)"/>
    </g></g></g>
</svg>