
<svg xmlns="http://www.w3.org/2000/svg" xmlns:xlink="http://www.w3.org/1999/xlink" style="isolation:isolate" viewBox="459.441 233.92 263.733 331.08" width="263.733" height="331.08">
<defs><clipPath id="_clipPath_SJnNCx2p1rRSKDbYdwztblG7Cq7dbYfx"><rect x="459.441" y="233.92" width="263.733" height="331.08"/></clipPath></defs><g clip-path="url(#_clipPath_SJnNCx2p1rRSKDbYdwztblG7Cq7dbYfx)"><path d="M 586.773 399 L 662.186 399 C 685.587 399 704.587 417.999 704.587 441.401 L 704.587 505 C 704.587 538.115 677.702 565 644.587 565 L 586.773 565 C 563.371 565 544.372 546.001 544.372 522.599 L 544.372 441.401 C 544.372 417.999 563.371 399 586.773 399 Z" style="stroke:none;fill:#DEAD85;stroke-miterlimit:10;"/><path d="M 523.82 269.31 L 523.82 269.31 C 537.042 265.831 551.027 275.361 555.032 290.579 L 599.864 460.951 L 551.953 473.558 L 507.12 303.187 C 503.116 287.969 510.599 272.79 523.82 269.31 Z" style="stroke:none;fill:#DEAD85;stroke-miterlimit:10;"/><path d="M 589.672 233.985 L 589.672 233.985 C 603.176 232.933 615.131 244.812 616.353 260.495 L 630.171 437.916 L 581.236 441.728 L 567.418 264.306 C 566.196 248.623 576.168 235.036 589.672 233.985 Z" style="stroke:none;fill:#DEAD85;stroke-miterlimit:10;"/><path d="M 652.163 248.97 L 652.163 248.97 C 664.782 249.428 674.617 261.092 674.111 274.998 L 668.729 423 L 623 421.337 L 628.382 273.335 C 628.888 259.429 639.544 248.511 652.163 248.97 Z" style="stroke:none;fill:#DEAD85;stroke-miterlimit:10;"/><path d="M 705.416 283.114 L 705.416 283.114 C 716.815 284.689 724.666 296.137 722.936 308.664 L 704.587 441.549 L 663.279 435.845 L 681.628 302.96 C 683.358 290.433 694.017 281.54 705.416 283.114 Z" style="stroke:none;fill:#DEAD85;stroke-miterlimit:10;"/><g><path d=" M 520.956 531.916 C 505.271 501.815 516.975 464.642 547.076 448.956 C 577.177 433.271 614.35 444.975 630.035 475.076 C 645.721 505.177 634.017 542.35 603.916 558.035 C 573.815 573.721 536.642 562.017 520.956 531.916 Z " fill="rgb(222,173,133)"/><path d="M 472.897 385.56 L 474.07 384.949 C 486.313 378.57 501.432 383.33 507.811 395.573 L 566.494 508.187 L 520.956 531.916 L 462.274 419.302 C 455.894 407.059 460.654 391.94 472.897 385.56 Z" style="stroke:none;fill:#DEAD85;stroke-miterlimit:10;"/></g></g></svg>